<?xml version="1.0" encoding="UTF-8"?>
<svg width="10px" height="20px" viewBox="0 0 10 20" version="1.1" xmlns="http://www.w3.org/2000/svg" xmlns:xlink="http://www.w3.org/1999/xlink">
    <!-- Generator: Sketch 52.3 (67297) - http://www.bohemiancoding.com/sketch -->
    <title>ion-social-facebook - Ionicons</title>
    <desc>Created with Sketch.</desc>
    <g id="Page-1" stroke="none" stroke-width="1" fill="none" fill-rule="evenodd">
        <g id="Main-page" transform="translate(-1126.000000, -4105.000000)" fill="#FFFFFF">
            <g id="footer" transform="translate(1.000000, 4061.000000)">
                <g id="Social" transform="translate(1105.000000, 29.000000)">
                    <g id="Group-32">
                        <g id="Group-29">
                            <path d="M26.5,21.5 L29.75,21.5 L29.34375,24.75 L26.5,24.75 L26.5,34.5 L22.2851562,34.5 L22.2851562,24.75 L20,24.75 L20,21.5 L22.2851562,21.5 L22.2851562,19.3164062 C22.2851562,17.8945241 22.6406214,16.8196651 23.3515625,16.0917969 C24.0625036,15.3639287 25.2473875,15 26.90625,15 L29.75,15 L29.75,18.25 L28.0234375,18.25 C27.3802051,18.25 26.9654957,18.3515615 26.7792969,18.5546875 C26.593098,18.7578135 26.5,19.0963518 26.5,19.5703125 L26.5,21.5 Z" id="ion-social-facebook---Ionicons"></path>
                        </g>
                    </g>
                </g>
            </g>
        </g>
    </g>
</svg>