<?xml version="1.0" encoding="UTF-8"?>
<svg width="20px" height="20px" viewBox="0 0 20 20" version="1.1" xmlns="http://www.w3.org/2000/svg" xmlns:xlink="http://www.w3.org/1999/xlink">
    <!-- Generator: Sketch 52.3 (67297) - http://www.bohemiancoding.com/sketch -->
    <title>Shape</title>
    <desc>Created with Sketch.</desc>
    <g id="Page-1" stroke="none" stroke-width="1" fill="none" fill-rule="evenodd">
        <g id="Main-page" transform="translate(-1241.000000, -4105.000000)" fill="#FFFFFF" fill-rule="nonzero">
            <g id="footer" transform="translate(1.000000, 4061.000000)">
                <g id="Social" transform="translate(1105.000000, 29.000000)">
                    <g id="Group-32">
                        <g id="Group-7" transform="translate(120.000000, 0.000000)">
                            <g id="Group-31">
                                <path d="M30.2938776,15 L19.7061224,15 C17.1183673,15 15,17.1183673 15,19.7061224 L15,30.2938776 C15,32.8816327 17.1183673,35 19.7061224,35 L30.2938776,35 C32.8816327,35 35,32.8816327 35,30.2938776 L35,19.7061224 C35,17.1183673 32.8816327,15 30.2938776,15 Z M33.8244898,30.2938776 C33.8244898,32.2387755 32.2408163,33.822449 30.2959184,33.822449 L19.7061224,33.822449 C17.7612245,33.822449 16.177551,32.2387755 16.177551,30.2938776 L16.177551,23.2346939 L19.9510204,23.2346939 C19.6142857,23.9530612 19.4142857,24.744898 19.4142857,25.5877551 C19.4142857,28.6693878 21.9204082,31.1755102 25.0020408,31.1755102 C28.0836735,31.1755102 30.5897959,28.6693878 30.5897959,25.5877551 C30.5897959,24.744898 30.3877551,23.9530612 30.0530612,23.2346939 L33.8265306,23.2346939 L33.8265306,30.2938776 L33.8244898,30.2938776 Z M29.4122449,25.5877551 C29.4122449,28.0204082 27.4326531,30 25,30 C22.5673469,30 20.5877551,28.0204082 20.5877551,25.5877551 C20.5877551,23.155102 22.5673469,21.1755102 25,21.1755102 C27.4326531,21.1755102 29.4122449,23.155102 29.4122449,25.5877551 Z M29.2959184,22.0591837 C28.2714286,20.8122449 26.7367347,20 25,20 C23.2632653,20 21.7285714,20.8122449 20.7040816,22.0591837 L16.1755102,22.0591837 L16.1755102,19.7061224 C16.1755102,17.7612245 17.7591837,16.177551 19.7040816,16.177551 L30.2918367,16.177551 C32.2367347,16.177551 33.8204082,17.7612245 33.8204082,19.7061224 L33.8204082,22.0591837 L29.2959184,22.0591837 Z M32.0040816,18.2020408 L32.0040816,19.7285714 C32.0040816,20.0795918 31.7163265,20.3673469 31.3673469,20.3673469 L29.7571429,20.3673469 C29.4040816,20.3653061 29.1163265,20.0795918 29.1163265,19.7285714 L29.1163265,18.2020408 C29.1163265,17.8510204 29.4040816,17.5632653 29.7571429,17.5632653 L31.3673469,17.5632653 C31.7183673,17.5632653 32.0040816,17.8510204 32.0040816,18.2020408 Z" id="Shape"></path>
                            </g>
                        </g>
                    </g>
                </g>
            </g>
        </g>
    </g>
</svg>