<?xml version="1.0" encoding="UTF-8"?>
<svg width="23px" height="19px" viewBox="0 0 23 19" version="1.1" xmlns="http://www.w3.org/2000/svg" xmlns:xlink="http://www.w3.org/1999/xlink">
    <!-- Generator: Sketch 52.3 (67297) - http://www.bohemiancoding.com/sketch -->
    <title>twitter - FontAwesome</title>
    <desc>Created with Sketch.</desc>
    <g id="Page-1" stroke="none" stroke-width="1" fill="none" fill-rule="evenodd">
        <g id="Main-page" transform="translate(-1180.000000, -4106.000000)" fill="#FFFFFF">
            <g id="footer" transform="translate(1.000000, 4061.000000)">
                <g id="Social" transform="translate(1105.000000, 29.000000)">
                    <g id="Group-32">
                        <g id="Group-30" transform="translate(60.000000, 0.000000)">
                            <path d="M36.8660714,18.2053571 C36.2180027,19.1532785 35.4345284,19.9609342 34.515625,20.6283482 C34.5252977,20.7637656 34.5301339,20.9668885 34.5301339,21.2377232 C34.5301339,22.49517 34.346356,23.7501797 33.9787946,25.0027902 C33.6112333,26.2554006 33.0526451,27.4572115 32.3030134,28.6082589 C31.5533817,29.7593064 30.6610915,30.7773393 29.6261161,31.6623884 C28.5911407,32.5474375 27.3433853,33.2535316 25.8828125,33.780692 C24.4222397,34.3078523 22.8601274,34.5714286 21.1964286,34.5714286 C18.5751357,34.5714286 16.1763502,33.8701707 14,32.4676339 C14.3385434,32.5063246 14.7157717,32.5256696 15.1316964,32.5256696 C17.3080466,32.5256696 19.2473873,31.8582656 20.9497768,30.5234375 C19.9341467,30.5040922 19.0249296,30.1921533 18.2220982,29.5876116 C17.4192668,28.9830699 16.867933,28.2116862 16.5680804,27.2734375 C16.8872784,27.3218008 17.1822903,27.3459821 17.453125,27.3459821 C17.8690497,27.3459821 18.2801319,27.2927833 18.6863839,27.1863839 C17.6030452,26.9639126 16.7059187,26.4246695 15.9949777,25.5686384 C15.2840366,24.7126073 14.9285714,23.7187557 14.9285714,22.5870536 L14.9285714,22.5290179 C15.5863128,22.8965792 16.2924069,23.0948659 17.046875,23.1238839 C16.408479,22.6982866 15.9006715,22.1421165 15.5234375,21.4553571 C15.1462035,20.7685978 14.9575893,20.0238135 14.9575893,19.2209821 C14.9575893,18.3697874 15.1703848,17.5814768 15.5959821,16.8560268 C16.7663749,18.2972542 18.1906538,19.4507025 19.8688616,20.3164062 C21.5470694,21.18211 23.3437404,21.663318 25.2589286,21.7600446 C25.1815472,21.3924833 25.1428571,21.0346 25.1428571,20.6863839 C25.1428571,19.3902465 25.5998838,18.2851608 26.5139509,17.3710937 C27.428018,16.4570267 28.5331036,16 29.8292411,16 C31.1834145,16 32.3247721,16.4932986 33.2533482,17.4799107 C34.307669,17.2767847 35.2991025,16.8995563 36.2276786,16.3482143 C35.8697899,17.460571 35.1830408,18.3214255 34.1674107,18.9308036 C35.0669688,18.8340769 35.9665134,18.5922638 36.8660714,18.2053571 Z" id="twitter---FontAwesome"></path>
                        </g>
                    </g>
                </g>
            </g>
        </g>
    </g>
</svg>