<?xml version="1.0" encoding="UTF-8"?>
<svg width="136px" height="159px" viewBox="0 0 136 159" version="1.1" xmlns="http://www.w3.org/2000/svg" xmlns:xlink="http://www.w3.org/1999/xlink">
    <!-- Generator: Sketch 52.3 (67297) - http://www.bohemiancoding.com/sketch -->
    <title>logo</title>
    <desc>Created with Sketch.</desc>
    <g id="Page-1" stroke="none" stroke-width="1" fill="none" fill-rule="evenodd" opacity="0.0687313988">
        <g id="Main-page" transform="translate(-1106.000000, -4146.000000)" fill="#FFFFFF">
            <g id="footer" transform="translate(1.000000, 4061.000000)">
                <g id="logo" transform="translate(1105.000000, 85.000000)">
                    <path d="M9,123.535101 C9,123.535101 59.6738823,91.9496631 49.3799208,0 C49.3799208,0 77.7572949,27.0884197 84.1246937,65.3183871 C86.9581862,82.3283838 84.1246937,113.265315 57.2436584,124.630119 C47.7350095,128.6381 24.5576778,134.899905 9,123.535101 Z" id="Path"></path>
                    <path d="M99.5668412,114.900349 C93.2607956,117.752174 82,121.381769 82,121.381769 C82,121.381769 113.6869,87.8944336 100.213113,22 C100.213113,22 155.537891,107.284681 128.609902,133.080731 C121.451953,139.87542 118.083506,106.496108 99.5668412,114.900349 Z" id="Path"></path>
                    <path d="M11.1706948,135.863933 C11.1706948,135.863933 51.0220424,145.967718 73.9474512,137.995832 C96.8728601,130.023945 99.9840897,122.587559 108.096648,130.14519 C116.209205,137.702822 127.634745,160.779867 112.821894,158.890459 C11.1282207,145.896992 0,132.51958 0,132.51958 C0,132.51958 9.55667808,135.469885 11.1706948,135.863933 Z" id="Path"></path>
                </g>
            </g>
        </g>
    </g>
</svg>