<svg xmlns="http://www.w3.org/2000/svg" width="158" height="82" viewBox="0 0 158 82">
    <defs>
        <linearGradient id="a" x1="-39.289%" y1="100%" y2="60.718%">
            <stop offset="0%" stop-color="#0461EA"/>
            <stop offset="100%" stop-color="#09BBF8"/>
        </linearGradient>
        <linearGradient id="b" x1="17.743%" x2="89.016%" y1="25.83%" y2="100%">
            <stop offset="0%" stop-color="#09C6F9"/>
            <stop offset="100%" stop-color="#045DE9"/>
        </linearGradient>
    </defs>
    <g fill="none" fill-rule="evenodd">
        <path fill="#000" d="M3.664 80H2.656v-4.8H.92v-.864H5.4v.864H3.664V80zm8.224-2.848c0 .443-.076.847-.228 1.212a2.868 2.868 0 0 1-.632.948c-.27.267-.59.473-.96.62-.37.147-.772.22-1.204.22-.432 0-.832-.073-1.2-.22a2.838 2.838 0 0 1-1.596-1.568 3.126 3.126 0 0 1-.228-1.212c0-.443.076-.847.228-1.212a2.71 2.71 0 0 1 .636-.936c.272-.259.592-.46.96-.604a3.265 3.265 0 0 1 1.2-.216c.432 0 .833.072 1.204.216a2.738 2.738 0 0 1 1.592 1.54c.152.365.228.77.228 1.212zm-1.072 0c0-.283-.045-.55-.136-.8a1.88 1.88 0 0 0-1.816-1.264 1.88 1.88 0 0 0-1.816 1.264c-.09.25-.136.517-.136.8 0 .288.047.56.14.816.093.256.224.477.392.664.168.187.372.335.612.444.24.11.51.164.808.164.293 0 .561-.055.804-.164.243-.11.448-.257.616-.444.168-.187.299-.408.392-.664.093-.256.14-.528.14-.816zm2.12-2.816h1.856c.299 0 .576.03.832.092.256.061.476.159.66.292.184.133.328.303.432.508.104.205.156.455.156.748s-.055.545-.164.756c-.11.21-.259.383-.448.516-.19.133-.412.23-.668.292a3.53 3.53 0 0 1-.824.092h-.832V80h-1v-5.664zm1 2.488h.76c.17 0 .328-.016.472-.048a1.09 1.09 0 0 0 .372-.152.711.711 0 0 0 .24-.264.816.816 0 0 0 .084-.384.78.78 0 0 0-.088-.388.701.701 0 0 0-.24-.252 1.035 1.035 0 0 0-.364-.136 2.483 2.483 0 0 0-.46-.04h-.776v1.664zM18.84 80h-1.008v-5.664h3.4v.88H18.84V80zm4.272 0h-1.008v-5.664h1.008V80zm1.32-5.664h1.992c.219 0 .44.023.664.068.224.045.425.123.604.232.179.11.325.257.44.444.115.187.172.424.172.712 0 .304-.088.563-.264.776-.176.213-.408.36-.696.44v.016c.17.027.33.076.48.148.15.072.279.165.388.28.11.115.195.25.256.408.061.157.092.335.092.532 0 .272-.056.51-.168.712a1.46 1.46 0 0 1-.46.504 2.072 2.072 0 0 1-.68.296 3.438 3.438 0 0 1-.828.096h-1.992v-5.664zm.976 2.36h.928c.133 0 .26-.015.38-.044a.921.921 0 0 0 .316-.14.705.705 0 0 0 .216-.244.757.757 0 0 0 .08-.364c0-.267-.101-.459-.304-.576-.203-.117-.467-.176-.792-.176h-.824v1.544zm0 2.48h.904c.155 0 .307-.015.456-.044.15-.03.281-.077.396-.144a.816.816 0 0 0 .28-.268.754.754 0 0 0 .108-.416c0-.304-.107-.521-.32-.652-.213-.13-.504-.196-.872-.196h-.952v1.72zm5.216-.04h2.816V80h-3.792v-5.664h3.672v.864h-2.696v1.472h2.528v.824h-2.528v1.64zM34.84 80h-1.08l2.312-5.664h1.016L39.424 80H38.32l-1.736-4.312L34.84 80zm5.144-5.664h1v2.176h.736c.31 0 .596.033.86.1s.492.17.684.312c.192.141.343.317.452.528.11.21.164.46.164.748 0 .293-.056.552-.168.776a1.632 1.632 0 0 1-.46.564 2.03 2.03 0 0 1-.692.344 3.09 3.09 0 0 1-.864.116h-1.712v-5.664zm1 3.032v1.776h.768c.39 0 .673-.084.852-.252a.854.854 0 0 0 .268-.652c0-.272-.09-.485-.272-.64-.181-.155-.464-.232-.848-.232h-.768zm3.92-3.032h1v2.288h2.616v-2.288h1V80h-1v-2.512h-2.616V80h-1v-5.664zm11.704 2.816c0 .443-.076.847-.228 1.212a2.868 2.868 0 0 1-.632.948c-.27.267-.59.473-.96.62-.37.147-.772.22-1.204.22-.432 0-.832-.073-1.2-.22a2.838 2.838 0 0 1-1.596-1.568 3.126 3.126 0 0 1-.228-1.212c0-.443.076-.847.228-1.212a2.71 2.71 0 0 1 .636-.936c.272-.259.592-.46.96-.604a3.265 3.265 0 0 1 1.2-.216c.432 0 .833.072 1.204.216a2.738 2.738 0 0 1 1.592 1.54c.152.365.228.77.228 1.212zm-1.072 0c0-.283-.045-.55-.136-.8a1.88 1.88 0 0 0-1.816-1.264 1.88 1.88 0 0 0-1.816 1.264c-.09.25-.136.517-.136.8 0 .288.047.56.14.816.093.256.224.477.392.664.168.187.372.335.612.444.24.11.51.164.808.164.293 0 .561-.055.804-.164.243-.11.448-.257.616-.444.168-.187.299-.408.392-.664.093-.256.14-.528.14-.816zm3.696 1.288h-1.92v-.816h1.92v.816zm.984-4.104h1.856c.299 0 .576.03.832.092.256.061.476.159.66.292.184.133.328.303.432.508.104.205.156.455.156.748s-.055.545-.164.756c-.11.21-.259.383-.448.516-.19.133-.412.23-.668.292a3.53 3.53 0 0 1-.824.092h-.832V80h-1v-5.664zm1 2.488h.76c.17 0 .328-.016.472-.048a1.09 1.09 0 0 0 .372-.152.711.711 0 0 0 .24-.264.816.816 0 0 0 .084-.384.78.78 0 0 0-.088-.388.701.701 0 0 0-.24-.252 1.035 1.035 0 0 0-.364-.136 2.483 2.483 0 0 0-.46-.04h-.776v1.664zm9.656.328c0 .443-.076.847-.228 1.212a2.868 2.868 0 0 1-.632.948c-.27.267-.59.473-.96.62-.37.147-.772.22-1.204.22-.432 0-.832-.073-1.2-.22a2.838 2.838 0 0 1-1.596-1.568 3.126 3.126 0 0 1-.228-1.212c0-.443.076-.847.228-1.212a2.71 2.71 0 0 1 .636-.936c.272-.259.592-.46.96-.604a3.265 3.265 0 0 1 1.2-.216c.432 0 .833.072 1.204.216a2.738 2.738 0 0 1 1.592 1.54c.152.365.228.77.228 1.212zm-1.072 0c0-.283-.045-.55-.136-.8a1.88 1.88 0 0 0-1.816-1.264 1.88 1.88 0 0 0-1.816 1.264c-.09.25-.136.517-.136.8 0 .288.047.56.14.816.093.256.224.477.392.664.168.187.372.335.612.444.24.11.51.164.808.164.293 0 .561-.055.804-.164.243-.11.448-.257.616-.444.168-.187.299-.408.392-.664.093-.256.14-.528.14-.816zm2.96-.456h.576c.368 0 .659-.07.872-.208.213-.139.32-.35.32-.632 0-.261-.087-.464-.26-.608-.173-.144-.401-.216-.684-.216a.963.963 0 0 0-.608.192 1.078 1.078 0 0 0-.36.528l-.864-.368c.155-.379.395-.672.72-.88.325-.208.717-.312 1.176-.312.272 0 .525.033.76.1s.439.164.612.292c.173.128.31.29.408.484.099.195.148.42.148.676 0 .176-.035.336-.104.48a1.362 1.362 0 0 1-.624.636 1.92 1.92 0 0 1-.392.148v.016c.144.016.296.05.456.104.16.053.307.135.44.244.133.11.243.248.328.416.085.168.128.372.128.612 0 .272-.057.515-.172.728-.115.213-.27.396-.464.548a2.09 2.09 0 0 1-.688.348c-.264.08-.548.12-.852.12a2.55 2.55 0 0 1-.744-.1 1.845 1.845 0 0 1-1-.708 2.187 2.187 0 0 1-.28-.544l.888-.336c.107.272.253.481.44.628.187.147.437.22.752.22.352 0 .624-.081.816-.244.192-.163.288-.383.288-.66 0-.336-.127-.58-.38-.732-.253-.152-.625-.228-1.116-.228h-.536v-.744zm4.136-2.36h1.992c.219 0 .44.023.664.068.224.045.425.123.604.232.179.11.325.257.44.444.115.187.172.424.172.712 0 .304-.088.563-.264.776-.176.213-.408.36-.696.44v.016c.17.027.33.076.48.148.15.072.279.165.388.28.11.115.195.25.256.408.061.157.092.335.092.532 0 .272-.056.51-.168.712a1.46 1.46 0 0 1-.46.504 2.072 2.072 0 0 1-.68.296 3.438 3.438 0 0 1-.828.096h-1.992v-5.664zm.976 2.36h.928c.133 0 .26-.015.38-.044a.921.921 0 0 0 .316-.14.705.705 0 0 0 .216-.244.757.757 0 0 0 .08-.364c0-.267-.101-.459-.304-.576-.203-.117-.467-.176-.792-.176h-.824v1.544zm0 2.48h.904c.155 0 .307-.015.456-.044.15-.03.281-.077.396-.144a.816.816 0 0 0 .28-.268.754.754 0 0 0 .108-.416c0-.304-.107-.521-.32-.652-.213-.13-.504-.196-.872-.196h-.952v1.72zM82.52 80h-1.096l2.408-5.664h.976L87.2 80h-1.12l-.52-1.288h-2.536L82.52 80zm.816-2.12h1.92l-.952-2.432-.968 2.432zm7.328-.44a1.784 1.784 0 0 0-.84.176 1.848 1.848 0 0 0-.632.52c-.176.224-.32.495-.432.812A5.034 5.034 0 0 0 88.52 80h-1.096c.09-.784.28-1.43.568-1.936.288-.507.667-.883 1.136-1.128l-1.704-2.6h1.096l1.544 2.288c.192-.032.392-.048.6-.048v-2.24h1v2.24c.203 0 .4.016.592.048l1.544-2.288h1.096l-1.712 2.6c.955.496 1.525 1.517 1.712 3.064H93.8a4.958 4.958 0 0 0-.24-1.056 2.835 2.835 0 0 0-.432-.808 1.848 1.848 0 0 0-.632-.52 1.765 1.765 0 0 0-.832-.176V80h-1v-2.56zM96.216 80H95.12l2.408-5.664h.976L100.896 80h-1.12l-.52-1.288H96.72L96.216 80zm.816-2.12h1.92L98 75.448l-.968 2.432zm4.896 2.12h-1.08l2.312-5.664h1.016L106.512 80h-1.104l-1.736-4.312L101.928 80zm5.144-5.664h1v2.176h.736c.31 0 .596.033.86.1s.492.17.684.312c.192.141.343.317.452.528.11.21.164.46.164.748 0 .293-.056.552-.168.776a1.632 1.632 0 0 1-.46.564 2.03 2.03 0 0 1-.692.344 3.09 3.09 0 0 1-.864.116h-1.712v-5.664zm1 3.032v1.776h.768c.39 0 .673-.084.852-.252a.854.854 0 0 0 .268-.652c0-.272-.09-.485-.272-.64-.181-.155-.464-.232-.848-.232h-.768zm3.92-3.032h1v2.288h2.616v-2.288h1V80h-1v-2.512h-2.616V80h-1v-5.664zm6.96 4.256l2.784-4.256h1.168V80h-1v-4.256h-.016L119.096 80h-1.16v-5.664h1v4.256h.016zm6.816-5.912a.998.998 0 0 0 .372.44.999.999 0 0 0 .572.176.975.975 0 0 0 .572-.176c.168-.117.29-.264.364-.44l.568.296a1.268 1.268 0 0 1-.208.348c-.09.11-.201.207-.332.292-.13.085-.277.152-.44.2a1.843 1.843 0 0 1-.524.072c-.187 0-.361-.024-.524-.072a1.657 1.657 0 0 1-.44-.2 1.558 1.558 0 0 1-.336-.292 1.22 1.22 0 0 1-.212-.348l.568-.296zm2.216 1.656h1.208V80h-1c0-.715.001-1.423.004-2.124.003-.701.004-1.407.004-2.116h-.024L125.432 80h-1.2v-5.664h1c0 .71-.001 1.412-.004 2.108a550.16 550.16 0 0 0-.004 2.108h.024l2.736-4.216zM132.52 80v-5.664h1v4.8h2.512v-4.8h1v4.8h.648v1.976h-.872V80h-4.288zm7.016-.864h2.816V80h-3.792v-5.664h3.672v.864h-2.696v1.472h2.528v.824h-2.528v1.64zm3.824-4.8h1v2.288h2.616v-2.288h1V80h-1v-2.512h-2.616V80h-1v-5.664zM151.448 80h-1.008v-4.8h-1.736v-.864h4.48v.864h-1.736V80zm2.464-5.664h1.856c.299 0 .576.03.832.092.256.061.476.159.66.292.184.133.328.303.432.508.104.205.156.455.156.748s-.055.545-.164.756c-.11.21-.259.383-.448.516-.19.133-.412.23-.668.292a3.53 3.53 0 0 1-.824.092h-.832V80h-1v-5.664zm1 2.488h.76c.17 0 .328-.016.472-.048a1.09 1.09 0 0 0 .372-.152.711.711 0 0 0 .24-.264.816.816 0 0 0 .084-.384.78.78 0 0 0-.088-.388.701.701 0 0 0-.24-.252 1.035 1.035 0 0 0-.364-.136 2.483 2.483 0 0 0-.46-.04h-.776v1.664zM71.88 50.56h.02l4.74-11.72h2.2V53H77.4V40.7h-.04L72.24 53h-.76l-5.12-12.3h-.04V53h-1.44V38.84h2.2l4.8 11.72zM82.5 53h-1.58l6.12-14.16h1.4L94.52 53h-1.6l-1.56-3.72h-7.32L82.5 53zm2.08-5.04h6.24l-3.12-7.52-3.12 7.52zM98.04 53H96.6V38.84h8.04v1.28h-6.6V53zm10.32-1.28h7.58V53h-9.02V38.84h8.78v1.28h-7.34V45h6.86v1.26h-6.86v5.46zm10.3 1.28h-1.58l6.12-14.16h1.4L130.68 53h-1.6l-5.22-12.36-5.2 12.36zm13.6 0h-1.58l6.12-14.16h1.4L144.28 53h-1.6l-1.56-3.72h-7.32L132.26 53zm2.08-5.04h6.24l-3.12-7.52-3.12 7.52zm12.02-9.12h1.44v6.14h7.72v-6.14h1.44V53h-1.44v-6.7h-7.72V53h-1.44V38.84z"/>
        <path fill="url(#a)" d="M6 48.464S26.003 36.073 21.94 0c0 0 11.201 10.627 13.714 25.625 1.119 6.673 0 18.81-10.61 23.268-3.754 1.573-12.903 4.03-19.044-.43z"/>
        <path fill="url(#b)" d="M38.482 46.497C35.796 47.617 31 49.043 31 49.043S44.496 35.887 38.757 10c0 0 23.565 33.505 12.095 43.639-3.048 2.67-4.483-10.444-12.37-7.142z"/>
        <path fill="#032626" d="M4.468 53.601s15.94 4.105 25.111.866c9.17-3.239 10.415-6.26 13.66-3.19 3.245 3.071 7.815 12.446 1.89 11.678C4.45 57.677 0 52.242 0 52.242s3.823 1.199 4.468 1.359z"/>
    </g>
</svg>
