<?xml version="1.0" encoding="UTF-8"?>
<svg width="195px" height="17px" viewBox="0 0 195 17" version="1.1" xmlns="http://www.w3.org/2000/svg" xmlns:xlink="http://www.w3.org/1999/xlink">
    <!-- Generator: Sketch 52.3 (67297) - http://www.bohemiancoding.com/sketch -->
    <title>-</title>
    <desc>Created with Sketch.</desc>
    <g id="Page-1" stroke="none" stroke-width="1" fill="none" fill-rule="evenodd">
        <g id="map-" transform="translate(-582.000000, -828.000000)" fill="#ffffff">
            <path d="M678.1,830.866667 C680.446678,830.866667 682.206661,830.733335 683.38,830.466667 C684.553339,830.199999 685.726661,830.333331 686.9,830.866667 C686.9,831.400003 685.726678,831.666667 683.38,831.666667 C681.033322,831.666667 679.273339,831.400003 678.1,830.866667 Z M776.049997,829.682221 C775.316666,829.655554 774.950003,829.748888 774.950003,829.962222 C774.950003,830.175557 775.316666,830.295557 776.049997,830.322224 L776.049997,829.682221 Z M773.849997,829.677141 C774.583329,829.703808 775.683329,829.850475 777.150003,830.117143 C775.683329,830.277144 774.583329,830.343811 773.849997,830.317144 L773.849997,829.677141 Z M675.3,831.28 C675.593335,831.173333 676.03333,831.066667 676.62,830.96 C677.793339,830.746665 678.819996,830.64 679.7,830.64 C679.7,831.066669 678.966674,831.28 677.5,831.28 C676.619996,831.386667 675.88667,831.386667 675.3,831.28 Z M652.535001,831.893333 C651.948331,832.106668 651.288338,832.213333 650.555001,832.213333 C649.821664,832.213333 649.235003,832.160001 648.795001,832.053333 C648.354999,831.946666 648.354999,831.866667 648.795001,831.813333 C649.235003,831.76 650.481657,831.786666 652.535001,831.893333 Z M662.9,831.16 L654.1,831.16 C655.273339,830.839999 656.666659,830.76 658.28,830.92 C659.893341,831.080001 661.433326,831.16 662.9,831.16 Z M640.5,831.78 C642.260009,831.78 642.920002,831.833333 642.48,831.94 C642.039998,832.046667 641.380004,832.126666 640.5,832.18 C639.619996,832.233334 638.960002,832.233334 638.52,832.18 C638.079998,832.126666 638.739991,831.993334 640.5,831.78 Z M656.813333,832 C657.400003,831.786666 658.059996,831.706666 658.793333,831.76 C659.52667,831.813334 659.966666,831.893333 660.113333,832 C660.26,832.106667 660.186668,832.186666 659.893333,832.24 C659.599998,832.293334 658.573342,832.213334 656.813333,832 Z M664,835.22 L651,835.22 C651.577781,835.22 652.51666,835.166667 653.816667,835.06 C655.116673,834.953333 656.41666,834.873334 657.716667,834.82 C659.016673,834.766667 660.244439,834.766667 661.4,834.82 C662.555561,834.873334 663.422219,835.006666 664,835.22 Z M663.2,833.6 L669.8,833.6 C669.8,834.133336 668.700011,834.4 666.5,834.4 C664.299989,834.4 663.2,834.133336 663.2,833.6 Z M649.84,834.177778 C650.133335,833.751109 650.426665,833.564444 650.72,833.617778 C651.013335,833.671111 651.16,833.777777 651.16,833.937778 C651.16,834.097778 651.013335,834.23111 650.72,834.337778 C650.426665,834.444445 650.133335,834.391112 649.84,834.177778 Z M769.724955,828.787983 C770.198984,828.867267 770.71568,829.008612 771.275045,829.212017 C770.80231,829.126066 770.328988,829.04332 769.855079,828.963782 L769.724955,828.787983 Z M767.885348,830.350868 C767.207879,830.227769 766.62932,830.260963 766.149663,830.45045 C765.374292,830.756758 763.9528,831.063062 761.885144,831.369369 C760.851316,831.369369 759.817504,831.292794 758.783676,831.13964 C757.749848,830.986486 756.974489,831.063062 756.457575,831.369369 L754.131474,831.369369 C752.063819,831.879882 749.866967,832.16066 747.540855,832.211712 C745.2643,832.261675 743.606672,832.287189 742.567926,832.288254 C743.150035,832.371602 743.600866,832.672902 744.051703,833.207207 C744.31016,833.513515 744.439387,833.768768 744.439387,833.972973 C743.405559,833.972973 742.177907,833.845347 740.756393,833.59009 C739.33488,833.334834 737.978002,833.207207 736.685717,833.207207 C736.168803,833.615618 735.393444,833.87087 734.359616,833.972973 C733.325788,834.075076 732.421202,834.381379 731.645831,834.891892 C729.578176,834.891892 727.252098,834.764266 724.667528,834.509009 C722.082959,834.253752 719.886107,834.381379 718.076909,834.891892 C719.110737,834.891892 720.079936,834.917417 720.984535,834.968468 C721.889134,835.01952 723.116786,835.300298 724.667528,835.810811 C722.341416,835.810811 720.144564,835.963962 718.076909,836.27027 C716.009253,836.576578 714.070855,836.72973 712.261656,836.72973 C710.452457,836.72973 708.384833,836.576578 706.05872,836.27027 C703.732608,835.963962 702.181889,835.810811 701.406518,835.810811 C701.406518,836.321324 701.664971,836.678678 702.181885,836.882883 C702.696475,837.08617 702.954923,837.036492 702.957236,836.733846 C702.994106,837.038062 704.350738,837.110547 707.027929,836.959459 C709.741727,836.806306 711.486285,836.72973 712.261656,836.72973 C711.486285,837.546551 710.19402,837.878379 708.384821,837.725225 C706.575622,837.572071 704.766451,837.750748 702.957252,838.261261 L701.406518,839.027027 C700.889604,839.027027 700.372698,838.924926 699.855784,838.720721 C699.605564,838.621872 699.476469,838.475176 699.468494,838.280629 C699.44221,838.48917 699.314164,838.597974 699.080417,838.644144 C698.82196,838.695195 698.563507,838.771771 698.30505,838.873874 C697.788136,838.975976 697.400457,839.027027 697.142,839.027027 L695.591266,839.027027 C694.298981,839.027027 693.523622,839.180179 693.265165,839.486486 C693.006708,839.792794 692.360575,839.945946 691.326747,839.945946 C690.551376,839.945946 689.711404,839.81832 688.806804,839.563063 C687.902205,839.307807 687.062233,839.435433 686.286862,839.945946 L684.348444,839.945946 C683.573073,840.456459 682.668487,840.584085 681.63466,840.328829 C680.600832,840.073572 679.567019,839.945946 678.533192,839.945946 L678.533192,840.864865 C677.240907,840.864865 676.465548,840.711713 676.207091,840.405405 C675.948634,840.099098 675.431728,839.945946 674.656357,839.945946 C672.588701,839.945946 669.681104,840.099098 665.933478,840.405405 C662.185852,840.711713 658.890575,840.864865 656.047549,840.864865 C655.013721,840.864865 653.979908,840.89039 652.946081,840.941441 C651.912253,840.992493 651.007667,841.273271 650.232296,841.783784 C648.423097,841.783784 646.549313,841.630632 644.610885,841.324324 C642.672458,841.018016 640.798673,840.864865 638.989475,840.864865 L636.663374,841.783784 L623.482135,841.783784 C622.965221,842.090092 622.189861,842.268769 621.156034,842.31982 C620.122206,842.370871 619.088393,842.396396 618.054566,842.396396 C617.279195,842.396396 616.697675,842.524023 616.30999,842.779279 C615.922304,843.034536 614.823879,843.162162 613.01468,843.162162 C611.722395,843.672675 609.654771,844.106605 606.811744,844.463964 C603.968717,844.821323 602.159546,845 601.384175,845 C600.09189,845 600.027277,844.974475 601.190333,844.923423 C602.35339,844.872372 602.934909,844.642645 602.934909,844.234234 C602.934909,843.723721 602.224163,843.596095 600.80265,843.851351 C599.381136,844.106608 598.153484,844.234234 597.119657,844.234234 L597.895024,843.621622 C598.15348,843.315314 597.895027,842.906909 597.119657,842.396396 C596.085829,842.396396 595.568923,842.549548 595.568923,842.855856 C595.310466,842.957958 595.310466,843.06006 595.568923,843.162162 C593.759724,843.162162 592.919751,842.932435 593.04898,842.472973 C593.178208,842.013511 592.855142,841.783784 592.079771,841.783784 C592.079771,841.273271 591.692091,841.17117 590.916721,841.477477 C590.399807,841.57958 590.012127,841.681681 589.75367,841.783784 C588.978299,841.783784 588.332166,841.732733 587.815253,841.630631 C586.781425,841.426425 586.264519,841.171173 586.264519,840.864865 C584.972234,840.864865 583.938421,840.252258 583.163051,839.027027 C582.38768,837.801796 582,837.036038 582,836.72973 C582,836.015011 582.129227,835.606607 582.387684,835.504505 C582.64614,835.402402 582.969207,835.376877 583.356892,835.427928 C583.744578,835.478979 584.196871,835.53003 584.713785,835.581081 C585.230698,835.632132 585.747605,835.402405 586.264519,834.891892 C587.039889,834.891892 587.233729,834.713215 586.846044,834.355856 C586.458358,833.998497 586.264519,833.615618 586.264519,833.207207 C587.039889,831.981976 588.332155,831.343844 590.141354,831.292793 C591.950552,831.241741 593.759724,831.063065 595.568923,830.756757 C597.378121,830.756757 598.864226,830.603605 600.027283,830.297297 C601.190339,829.990989 602.159538,829.837838 602.934909,829.837838 C603.968737,829.837838 605.002549,829.990989 606.036377,830.297297 C607.070205,830.603605 607.974791,830.756757 608.750162,830.756757 C610.817817,830.756757 613.337735,830.603605 616.30999,830.297297 C619.282245,829.990989 621.672936,829.837838 623.482135,829.837838 L623.482135,830.756757 C626.583618,830.756757 629.749668,830.603605 632.98038,830.297297 C636.211092,829.990989 638.860236,829.837838 640.927892,829.837838 C641.703263,830.348351 643.189368,830.475977 645.386252,830.220721 C647.583136,829.965464 649.198468,829.837838 650.232296,829.837838 L654.109131,829.837838 C656.945558,830.211345 659.678195,830.311583 662.307084,830.138551 C662.048618,830.18588 661.771296,830.238795 661.475118,830.297297 C659.924376,830.603605 658.63211,830.756757 657.598283,830.756757 L644.804727,830.756757 C644.804727,831.059916 644.947133,831.250557 645.231949,831.328683 C644.444218,831.291355 643.526446,831.228341 642.478626,831.13964 C640.669427,830.986486 638.731029,831.063062 636.663374,831.369369 C636.14646,831.369369 635.95262,831.522521 636.081848,831.828829 C636.211077,832.135137 636.017237,832.288288 635.500323,832.288288 C634.466495,832.288288 634.208042,832.135137 634.724956,831.828829 C634.983413,831.726726 635.241866,831.573575 635.500323,831.369369 C634.208038,831.063062 632.721933,831.012011 631.041963,831.216216 C629.361993,831.420421 629.555832,831.777775 631.623488,832.288288 C631.623488,832.798801 631.946554,832.926428 632.592697,832.671171 C633.238839,832.415915 634.208038,832.288288 635.500323,832.288288 L657.598283,832.288288 C656.305998,832.288288 655.142959,832.339339 654.109131,832.441441 C652.041475,832.645647 651.266116,832.900899 651.78303,833.207207 C651.78303,833.411412 652.816842,833.513514 654.884498,833.513514 C656.952154,833.513514 659.407458,833.487988 662.250485,833.436937 C665.093511,833.385886 668.001108,833.334835 670.973363,833.283784 C673.945618,833.232732 676.465536,833.207207 678.533192,833.207207 L681.440818,833.207207 C682.862331,833.207207 684.283823,833.181682 685.705336,833.130631 C687.12685,833.079579 688.419115,832.977478 689.582171,832.824324 C690.745228,832.67117 691.326747,832.492494 691.326747,832.288288 L684.348444,832.288288 C686.674557,832.084083 689.065248,832.007507 691.520589,832.058559 C693.97593,832.10961 696.495848,832.16066 699.080417,832.211712 C701.664987,832.262763 704.055678,832.262763 706.252562,832.211712 C708.449446,832.16066 710.452457,831.879882 712.261656,831.369369 C710.452457,831.369369 708.707899,831.267268 707.027929,831.063063 C705.347959,830.858858 703.474174,830.756757 701.406518,830.756757 C699.855776,830.552552 698.369671,830.45045 696.948158,830.45045 C695.526645,830.45045 694.234379,830.475976 693.071323,830.527027 C691.908267,830.578078 690.874454,830.578078 689.969855,830.527027 C689.065256,830.475976 688.35451,830.246248 687.837596,829.837838 C689.646794,829.327325 691.520579,829.199698 693.459006,829.454955 C695.397434,829.710211 697.400445,829.837838 699.468101,829.837838 L700.631151,829.378378 C701.148065,829.276276 701.535745,829.174175 701.794202,829.072072 C702.052659,828.969969 702.440338,828.918919 702.957252,828.918919 C703.215709,829.123124 703.603389,829.276276 704.120303,829.378378 C704.895674,829.684686 705.671033,829.837838 706.446404,829.837838 L712.261656,829.837838 C713.812398,829.837838 714.329304,829.786787 713.81239,829.684685 C713.295476,829.582582 712.455504,829.480481 711.292447,829.378378 C710.129391,829.276276 708.901739,829.174175 707.609454,829.072072 C706.317169,828.969969 705.54181,828.918919 705.283353,828.918919 C701.148042,828.408406 697.271246,828.255254 693.652848,828.459459 C690.034451,828.663665 686.416108,828.510513 682.79771,828 C694.169816,828 704.249487,828.025525 713.037023,828.076577 C721.82456,828.127628 731.128871,828.408406 740.950235,828.918919 C745.60246,828.918919 750.319229,828.995495 755.100683,829.148649 C759.45404,829.28809 763.753777,829.744918 768,830.519144 L767.885348,830.350868 Z M662.900769,830.157078 C664.14333,829.94764 665.001911,829.842922 665.476532,829.842922 C665.684098,829.842922 665.891665,829.844591 666.099231,829.847929 C665.04855,829.988497 663.982397,830.091547 662.900769,830.157078 Z M664.091349,828.77834 C664.103785,828.776677 664.116219,828.775008 664.128651,828.773333 C668.08867,828.239997 671.681968,828.239997 674.908651,828.773333 C674.321981,829.626671 672.855329,829.840002 670.508651,829.413333 C668.369539,829.024404 666.230456,828.812741 664.091349,828.77834 Z M649.74175,831.93982 C650.306047,831.964435 650.811546,831.978358 651.25825,831.981592 C650.827318,832.088735 650.415796,832.083751 650.136876,831.982325 C649.985685,831.982325 649.853977,831.968157 649.74175,831.93982 Z M685.616314,835.057532 C684.84198,835.62781 684.067657,835.937061 683.293323,835.985294 C682.506356,836.034314 681.78498,835.960785 681.129174,835.764706 C680.473368,835.568626 679.883151,835.299021 679.358506,834.955882 C678.833861,834.612743 678.309224,834.343138 677.784579,834.147059 C679.883159,834.147059 682.440764,834.367645 685.457473,834.808824 C688.474181,835.250002 690.900627,835.029416 692.736884,834.147059 C687.752758,834.147059 682.309648,834.122549 676.407393,834.073529 C670.505138,834.02451 664.537392,834 658.503976,834 C652.470559,834 646.633972,834.073529 640.99404,834.220588 C635.354107,834.367648 630.304476,834.637253 625.844994,835.029412 C630.042153,835.51961 633.911351,835.51961 637.452704,835.029412 C640.994057,834.539213 644.207459,834.539213 647.093006,835.029412 C644.207459,835.029412 640.338261,835.176469 635.485296,835.470588 C630.63233,835.764707 626.107336,835.911765 621.910177,835.911765 C621.647854,835.911765 620.795319,835.960784 619.352546,836.058824 C617.909772,836.156863 616.5326,836.254901 615.220988,836.352941 C613.909376,836.450981 612.794522,836.549019 611.876393,836.647059 C610.958265,836.745099 610.761526,836.794118 611.286171,836.794118 C611.286171,837.186276 612.073126,837.357843 613.647061,837.308824 C615.220996,837.259804 616.860486,837.161765 618.565582,837.014706 C620.270678,836.867646 621.910169,836.745099 623.484104,836.647059 C625.058038,836.549019 625.844994,836.598038 625.844994,836.794118 C623.484092,836.892157 621.647862,837.039215 620.33625,837.235294 C616.926058,837.627453 615.614466,838.215682 616.401433,839 C617.1884,839 618.368834,838.901962 619.942768,838.705882 C620.729736,838.607843 621.385532,838.460785 621.910177,838.264706 C632.665397,838.656865 642.240023,838.607846 650.634342,838.117647 C659.02866,837.627449 668.078649,837.382353 677.784579,837.382353 C679.883159,837.382353 681.850548,837.357843 683.686805,837.308824 C685.523062,837.259804 687.359292,837.088237 689.195549,836.794118 C691.031806,836.794118 692.933615,836.867646 694.901034,837.014706 C696.868452,837.161765 698.90142,837.088237 701,836.794118 C699.426065,836.401959 697.786575,836.181373 696.081479,836.132353 C694.376383,836.083333 692.736892,836.083333 691.162957,836.132353 C689.589023,836.181373 688.27743,836.156863 687.22814,836.058824 C686.178933,835.960792 685.654296,835.617704 685.654213,835.029551 L685.616314,835.057532 Z M710.7375,834 C709.857496,833.786666 709.197503,833.706666 708.7575,833.76 C708.317498,833.813334 708.170833,833.893333 708.3175,834 C708.464168,834.106667 708.757498,834.186666 709.1975,834.24 C709.637503,834.293334 710.150831,834.213334 710.7375,834 Z M688.52,837.786666 C689.10667,838.213335 689.986661,838.320001 691.16,838.106666 C691.74667,837.999999 692.186665,837.893333 692.48,837.786666 L688.52,837.786666 Z M655.62,839.213334 L657.38,839.213334 L656.5,838.893334 C655.91333,838.679999 655.62,838.786665 655.62,839.213334 Z M657.82,839.18 C657.82,839.073333 657.673335,838.966667 657.38,838.86 C657.086665,838.753333 656.353339,838.859999 655.18,839.18 L657.82,839.18 Z M646.813333,839 C648.573342,839.213334 649.599998,839.293334 649.893333,839.24 C650.186668,839.186666 650.26,839.106667 650.113333,839 C649.966666,838.893333 649.52667,838.813334 648.793333,838.76 C648.059996,838.706666 647.400003,838.786666 646.813333,839 Z M654.813333,840 C656.573342,840.213334 657.599998,840.293334 657.893333,840.24 C658.186668,840.186666 658.26,840.106667 658.113333,840 C657.966666,839.893333 657.52667,839.813334 656.793333,839.76 C656.059996,839.706666 655.400003,839.786666 654.813333,840 Z" id="-" transform="translate(679.575001, 836.500000) rotate(-360.000000) translate(-679.575001, -836.500000) "></path>
        </g>
    </g>
</svg>