<svg xmlns="http://www.w3.org/2000/svg" width="74" height="13" viewBox="0 0 74 13">
    <path fill="#FFC4C4" fill-rule="evenodd" d="M36.317 1.873c.854 0 1.494-.1 1.92-.3.427-.2.854-.1 1.28.3 0 .4-.426.6-1.28.6-.853 0-1.493-.2-1.92-.6zm36.511-.522c-.266-.02-.4.05-.4.21 0 .16.134.25.4.27v-.48zm-.8-.004c.267.02.667.13 1.2.33-.533.12-.933.17-1.2.15v-.48zM34.963 2.783c.107-.08.267-.16.48-.24.427-.16.8-.24 1.12-.24 0 .32-.266.48-.8.48-.32.08-.586.08-.8 0zm-8.658-.234a1.17 1.17 0 0 1-.72.24c-.266 0-.48-.04-.64-.12-.16-.08-.16-.14 0-.18.16-.04.614-.02 1.36.06zm3.996-.21h-3.2c.427-.24.933-.3 1.52-.18s1.147.18 1.68.18zm-7.871.534c.64 0 .88.04.72.12-.16.08-.4.14-.72.18-.32.04-.56.04-.72 0-.16-.04.08-.14.72-.3zm5.467.328a.926.926 0 0 1 .72-.18c.267.04.427.1.48.18.053.08.027.14-.08.18-.107.04-.48-.02-1.12-.18zm3.222 2.224h-5c.223 0 .584-.04 1.084-.12.5-.08 1-.14 1.5-.18.5-.04.972-.04 1.416 0 .445.04.778.14 1 .3zm-.073-.78h2.4c0 .4-.4.6-1.2.6-.8 0-1.2-.2-1.2-.6zm-5.12.271c.106-.32.213-.46.32-.42.106.04.16.12.16.24s-.054.22-.16.3c-.107.08-.214.04-.32-.12zM70.382 1.05c.173.06.36.165.564.318a21.508 21.508 0 0 0-.516-.186l-.048-.132zm-.426.749c-.255-.094-.473-.069-.653.076-.292.234-.827.468-1.605.703-.39 0-.778-.059-1.168-.176-.389-.117-.68-.059-.875.176h-.875a6.073 6.073 0 0 1-2.48.644c-.857.038-1.481.057-1.872.058.219.064.389.294.558.703.097.234.146.43.146.586-.389 0-.851-.098-1.386-.293a4.468 4.468 0 0 0-1.532-.293c-.194.312-.486.507-.875.586-.39.078-.73.312-1.022.702-.778 0-1.653-.097-2.626-.293-.973-.195-1.8-.097-2.48.293.389 0 .754.02 1.094.059.34.039.802.254 1.386.644-.875 0-1.702.117-2.48.351-.778.235-1.508.352-2.189.352-.68 0-1.459-.117-2.334-.352-.876-.234-1.46-.351-1.751-.351 0 .39.097.664.292.82.193.155.29.117.292-.114.013.232.524.288 1.532.172 1.02-.117 1.677-.175 1.97-.175-.293.624-.779.878-1.46.76-.68-.116-1.362.02-2.042.41l-.584.586c-.195 0-.39-.078-.584-.234-.094-.075-.142-.188-.145-.336-.01.16-.059.242-.146.278a1.16 1.16 0 0 0-.292.175c-.195.078-.34.117-.438.117h-.584c-.486 0-.778.118-.875.352-.097.234-.34.351-.73.351-.291 0-.607-.097-.948-.293-.34-.195-.656-.097-.948.293h-.73c-.292.39-.632.488-1.021.293a2.583 2.583 0 0 0-1.167-.293v.703c-.487 0-.778-.117-.876-.352-.097-.234-.292-.35-.583-.35-.778 0-1.873.116-3.283.35-1.41.235-2.65.352-3.72.352-.39 0-.779.02-1.168.058-.389.04-.73.254-1.021.645-.681 0-1.386-.118-2.116-.352a6.907 6.907 0 0 0-2.115-.351l-.876.703h-4.96c-.195.234-.487.37-.876.41-.389.038-.778.058-1.167.058-.292 0-.51.098-.657.293-.146.195-.559.293-1.24.293-.486.39-1.264.722-2.334.995S7.587 13 7.295 13c-.486 0-.51-.02-.073-.059.438-.039.657-.214.657-.527 0-.39-.268-.488-.803-.292-.535.195-.997.292-1.386.292l.292-.468c.097-.234 0-.547-.292-.937-.389 0-.583.117-.583.351-.098.078-.098.157 0 .235-.681 0-.997-.176-.949-.527.049-.352-.073-.527-.365-.527 0-.39-.145-.469-.437-.235-.195.078-.34.156-.438.235a1.97 1.97 0 0 1-.73-.118c-.389-.156-.583-.35-.583-.585-.486 0-.875-.469-1.167-1.406C.146 7.495 0 6.91 0 6.676c0-.547.049-.86.146-.937.097-.078.219-.098.365-.059.146.04.316.078.51.117.195.04.39-.136.584-.527.292 0 .365-.136.219-.41a1.837 1.837 0 0 1-.22-.878c.293-.937.78-1.425 1.46-1.464a7.594 7.594 0 0 0 2.043-.41c.68 0 1.24-.117 1.677-.351.438-.234.803-.352 1.095-.352.389 0 .778.118 1.167.352.389.234.73.351 1.021.351.778 0 1.727-.117 2.845-.351 1.119-.234 2.019-.352 2.7-.352v.703a18.87 18.87 0 0 0 3.574-.351c1.216-.234 2.213-.352 2.991-.352.292.39.851.488 1.678.293s1.435-.293 1.824-.293h1.459c1.067.286 2.096.363 3.085.23-.097.037-.202.077-.313.122-.584.234-1.07.351-1.459.351h-4.815c0 .232.054.378.161.437a14.302 14.302 0 0 1-1.036-.144c-.681-.117-1.41-.059-2.189.176-.194 0-.267.117-.219.35.049.235-.024.352-.218.352-.39 0-.487-.117-.292-.351a1.39 1.39 0 0 0 .292-.351c-.487-.235-1.046-.274-1.678-.118-.633.157-.56.43.219.82 0 .39.121.488.364.293s.608-.293 1.095-.293h8.316c-.486 0-.924.04-1.313.117-.778.157-1.07.352-.876.586 0 .156.39.234 1.168.234.778 0 1.702-.02 2.772-.058 1.07-.04 2.164-.078 3.283-.117a83.612 83.612 0 0 1 2.845-.059h1.094c.535 0 1.07-.02 1.605-.059a7.871 7.871 0 0 0 1.459-.234c.438-.117.656-.254.656-.41h-2.626a12.357 12.357 0 0 1 2.7-.175c.923.039 1.872.078 2.845.117.972.039 1.872.039 2.699 0a4.947 4.947 0 0 0 2.261-.644c-.68 0-1.337-.079-1.97-.235a8.832 8.832 0 0 0-2.115-.234 6.489 6.489 0 0 0-1.678-.234c-.535 0-1.021.02-1.459.058a5.808 5.808 0 0 1-1.167 0c-.34-.039-.608-.214-.803-.527.681-.39 1.386-.488 2.116-.292.73.195 1.483.292 2.261.292l.438-.35c.195-.079.34-.157.438-.235.097-.078.243-.117.438-.117a.884.884 0 0 0 .437.351c.292.234.584.351.876.351h2.188c.584 0 .778-.039.584-.117-.195-.078-.51-.156-.949-.234-.437-.078-.9-.156-1.386-.234-.486-.078-.778-.117-.875-.117C44.841.313 43.382.195 42.02.35A10.393 10.393 0 0 1 37.935 0c4.28 0 8.073.02 11.38.059 3.307.039 6.809.253 10.505.644 1.75 0 3.526.058 5.325.175 1.639.107 3.257.456 4.855 1.048l-.043-.128zm-39.683-.06c.451-.158.764-.236.936-.236.076 0 .151 0 .227.003a8.18 8.18 0 0 1-1.163.232zm.768-.885l.014-.004c1.44-.4 2.747-.4 3.92 0-.213.64-.747.8-1.6.48a7.304 7.304 0 0 0-2.334-.476zm-5.752 1.73c.205.019.389.03.551.032-.157.08-.306.076-.408 0a.307.307 0 0 1-.143-.031zm13.74 2.9c-.292.456-.584.703-.877.742-.297.04-.57-.02-.817-.176a2.445 2.445 0 0 1-.67-.648 3.231 3.231 0 0 0-.594-.647c.793 0 1.76.177 2.899.53 1.14.353 2.056.176 2.75-.53-1.883 0-3.94-.02-6.17-.058-2.229-.04-4.483-.06-6.763-.06-2.279 0-4.484.06-6.615.177-2.13.118-4.038.334-5.722.647 1.585.392 3.047.392 4.385 0 1.337-.392 2.551-.392 3.642 0-1.09 0-2.552.118-4.386.353a40.436 40.436 0 0 1-5.128.353c-.1 0-.421.04-.966.118-.545.078-1.066.157-1.561.235a20.09 20.09 0 0 0-1.264.235c-.346.079-.42.118-.222.118 0 .314.297.451.891.412.595-.04 1.214-.118 1.859-.235a38.058 38.058 0 0 1 1.858-.295c.594-.078.892-.039.892.118-.892.079-1.586.196-2.082.353-1.288.314-1.783.784-1.486 1.412.297 0 .743-.079 1.338-.236.297-.078.545-.196.743-.352 4.063.313 7.68.274 10.851-.118 3.172-.392 6.59-.588 10.257-.588.793 0 1.536-.02 2.23-.06a7.834 7.834 0 0 0 2.08-.41c.695 0 1.413.058 2.156.176.744.117 1.512.058 2.304-.177a4.534 4.534 0 0 0-1.858-.53c-.644-.039-1.263-.039-1.858 0-.594.04-1.09.02-1.486-.058-.397-.079-.595-.353-.595-.824l-.014.023zm8.963-.62c-.32-.16-.56-.22-.72-.18-.16.04-.214.1-.16.18.053.08.16.14.32.18.16.04.346-.02.56-.18zM40.17 7.485c.213.32.533.4.96.24.213-.08.373-.16.48-.24h-1.44zm-12.934.784h.64l-.32-.24c-.213-.16-.32-.08-.32.24zm.8-.025c0-.08-.053-.16-.16-.24-.106-.08-.373 0-.8.24h.96zm-3.247.465c.64.16 1.013.22 1.12.18.106-.04.133-.1.08-.18-.054-.08-.214-.14-.48-.18a.926.926 0 0 0-.72.18zm2.945.573c.64.16 1.013.22 1.12.18.106-.04.133-.1.08-.18-.054-.08-.214-.14-.48-.18a.926.926 0 0 0-.72.18z"/>
</svg>
